<?xml version="1.0" standalone="no"?>
<!DOCTYPE svg PUBLIC "-//W3C//DTD SVG 20010904//EN"
 "http://www.w3.org/TR/2001/REC-SVG-20010904/DTD/svg10.dtd">
<svg version="1.0" xmlns="http://www.w3.org/2000/svg"
 width="2417.000000pt" height="2417.000000pt" viewBox="0 0 2417.000000 2417.000000"
 preserveAspectRatio="xMidYMid meet">
<metadata>
Created by potrace 1.14, written by Peter Selinger 2001-2017
</metadata>
<g transform="translate(0.000000,2417.000000) scale(0.100000,-0.100000)"
fill="#000000" stroke="none">
<path d="M12177 23784 c-1 -1 -153 -4 -337 -8 -184 -3 -371 -8 -415 -10 -44
-3 -145 -7 -225 -11 -80 -3 -167 -8 -195 -10 -27 -2 -102 -7 -165 -10 -126 -8
-163 -10 -290 -20 -47 -3 -113 -8 -147 -10 -35 -3 -86 -7 -115 -10 -60 -5
-132 -12 -228 -21 -36 -3 -83 -7 -105 -10 -50 -5 -125 -13 -190 -20 -27 -3
-66 -7 -85 -9 -19 -2 -64 -7 -100 -11 -36 -3 -72 -7 -80 -9 -9 -2 -46 -6 -82
-9 -37 -4 -75 -8 -85 -10 -10 -2 -45 -7 -78 -10 -33 -4 -73 -9 -90 -11 -39 -5
-183 -25 -215 -30 -14 -2 -49 -7 -79 -10 -30 -4 -61 -8 -70 -10 -9 -1 -38 -6
-66 -9 -27 -4 -77 -11 -110 -16 -33 -5 -78 -12 -100 -15 -45 -7 -78 -13 -115
-20 -14 -2 -41 -7 -60 -9 -62 -9 -112 -17 -260 -43 -80 -14 -156 -27 -170 -28
-14 -2 -86 -15 -160 -29 -74 -14 -151 -28 -170 -31 -60 -10 -676 -134 -691
-139 -8 -3 -27 -7 -44 -10 -42 -6 -149 -30 -355 -77 -96 -23 -182 -42 -190
-44 -8 -2 -55 -13 -105 -25 -49 -12 -101 -24 -115 -26 -14 -3 -122 -30 -240
-60 -118 -31 -222 -57 -230 -59 -8 -2 -35 -8 -60 -15 -25 -7 -52 -13 -60 -15
-24 -5 -385 -103 -518 -141 -68 -20 -131 -37 -140 -39 -9 -2 -154 -45 -322
-95 -168 -50 -343 -103 -390 -116 -47 -14 -94 -29 -105 -34 -11 -5 -42 -15
-70 -23 -126 -38 -698 -229 -955 -319 -574 -201 -1487 -554 -1795 -693 -16 -8
-59 -26 -95 -41 -36 -14 -83 -34 -105 -45 -22 -10 -146 -65 -275 -122 -253
-113 -427 -194 -610 -285 l-115 -57 1 -71 c2 -84 13 -294 19 -379 2 -33 7 -98
10 -145 3 -47 7 -103 9 -125 3 -22 8 -71 11 -110 3 -38 8 -88 10 -110 3 -22 7
-65 9 -95 3 -30 7 -71 10 -90 5 -32 24 -195 31 -265 4 -36 15 -120 21 -156 7
-46 16 -113 18 -144 2 -16 6 -43 9 -60 3 -16 9 -52 12 -80 5 -46 18 -131 29
-195 6 -31 16 -96 21 -130 4 -31 23 -146 30 -180 2 -14 9 -52 14 -85 6 -33 13
-73 16 -90 10 -51 37 -199 41 -225 4 -21 32 -166 49 -250 3 -14 8 -41 11 -60
3 -19 7 -42 9 -50 3 -8 21 -91 41 -185 19 -93 37 -177 39 -185 2 -8 15 -69 30
-135 15 -66 45 -194 67 -285 22 -91 41 -172 43 -180 1 -8 8 -35 15 -60 7 -25
14 -54 16 -65 8 -43 82 -325 155 -595 28 -102 53 -192 54 -200 18 -79 223
-752 320 -1050 95 -293 280 -833 322 -940 3 -8 7 -19 8 -25 7 -26 214 -568
308 -805 131 -330 256 -633 302 -735 7 -16 43 -99 79 -183 37 -84 77 -176 90
-205 13 -28 53 -117 89 -197 64 -144 87 -193 186 -405 120 -256 196 -411 376
-770 177 -350 212 -419 313 -605 19 -36 53 -98 74 -138 22 -41 73 -133 114
-204 41 -72 74 -135 74 -139 0 -5 5 -9 10 -9 6 0 10 -5 10 -11 0 -6 66 -122
147 -258 81 -135 152 -254 158 -264 66 -118 487 -763 686 -1054 205 -298 790
-1095 839 -1143 3 -3 46 -57 95 -120 151 -194 606 -750 660 -806 5 -6 25 -29
43 -52 19 -23 44 -52 55 -65 12 -13 80 -91 152 -173 71 -82 144 -165 162 -184
17 -19 40 -45 51 -58 48 -56 236 -262 347 -380 22 -24 53 -58 69 -75 221 -242
1067 -1097 1321 -1337 262 -247 411 -385 610 -564 61 -55 133 -120 160 -145
28 -25 82 -73 120 -106 37 -33 78 -69 89 -80 12 -11 50 -45 86 -75 36 -30 67
-57 70 -60 5 -6 196 -170 239 -205 13 -11 29 -25 35 -30 6 -6 54 -46 106 -90
99 -84 106 -90 210 -177 67 -56 505 -409 574 -463 22 -16 62 -48 90 -70 28
-22 69 -54 90 -70 22 -17 62 -48 90 -70 28 -22 146 -110 261 -197 116 -87 215
-161 220 -166 33 -25 348 -252 445 -319 239 -167 263 -183 277 -183 12 0 299
189 488 323 129 91 299 211 310 220 6 4 100 74 210 155 220 162 481 359 649
491 154 122 470 374 476 381 3 3 28 23 55 45 28 21 52 42 55 45 3 3 59 50 125
105 119 98 412 345 470 396 17 14 73 64 126 110 52 46 126 111 164 144 38 33
73 65 79 70 6 6 76 69 156 140 80 72 154 139 166 150 11 11 63 59 115 106 52
48 112 104 134 124 22 21 101 95 175 164 74 69 342 333 595 586 447 446 599
604 885 915 47 51 99 108 115 125 17 18 55 61 85 95 30 34 66 74 80 89 14 14
54 60 90 100 36 41 70 79 75 85 6 6 39 45 75 86 36 41 70 79 75 86 6 6 33 37
60 69 28 33 66 77 85 100 19 22 60 69 90 105 30 36 57 67 60 70 3 3 22 26 43
52 21 26 43 53 50 60 7 7 24 29 39 50 15 20 34 42 41 50 10 11 76 91 260 318
7 8 28 35 47 60 57 73 121 154 134 170 6 8 41 53 76 100 36 47 67 87 70 90 3
3 39 50 80 105 41 55 80 107 87 115 17 20 181 243 225 305 19 28 94 133 166
235 73 102 135 190 139 195 34 43 395 585 507 760 31 50 78 124 105 165 62 97
371 609 371 615 0 2 18 34 41 72 22 37 45 75 49 83 5 8 37 65 71 125 219 386
368 667 587 1105 181 363 270 548 431 902 315 693 630 1497 907 2313 110 322
382 1215 419 1372 2 10 14 52 25 93 28 101 168 649 173 680 3 14 15 63 26 110
12 47 29 117 37 155 9 39 17 77 19 85 16 67 105 483 109 514 4 21 8 41 10 45
3 3 7 27 11 51 3 25 8 52 10 60 2 8 7 30 10 49 3 19 7 37 9 40 2 3 7 31 11 61
4 30 8 57 10 60 2 3 11 48 20 100 22 129 24 141 30 170 11 53 39 221 50 295 3
23 7 50 9 60 3 19 12 75 21 135 2 14 6 39 9 55 3 17 7 50 11 75 3 25 8 56 10
70 2 14 7 45 10 70 4 25 8 57 10 71 3 14 7 43 9 65 13 104 18 141 21 164 2 14
6 50 10 80 3 30 12 107 20 170 8 63 16 142 20 175 3 33 8 76 10 95 2 19 7 67
10 105 3 39 8 88 10 110 3 22 7 72 10 110 3 39 7 95 9 125 12 140 18 233 32
485 12 228 13 553 1 563 -29 24 -587 308 -787 400 -36 17 -105 49 -155 72
-720 335 -1762 752 -2465 986 -58 19 -114 39 -125 44 -53 23 -701 230 -1015
323 -396 119 -1129 319 -1252 342 -9 2 -43 11 -75 19 -108 29 -496 119 -652
151 -9 2 -59 13 -111 25 -100 22 -710 145 -770 154 -42 7 -86 15 -120 21 -56
11 -84 16 -310 54 -246 42 -293 49 -350 57 -19 2 -60 8 -90 14 -30 5 -73 11
-95 14 -40 5 -68 9 -185 26 -78 11 -118 17 -185 25 -27 4 -60 8 -73 10 -13 2
-53 7 -90 10 -37 4 -74 8 -82 10 -8 3 -40 7 -70 10 -30 3 -111 12 -180 20 -69
8 -156 17 -195 20 -38 4 -81 8 -95 10 -24 3 -80 9 -210 20 -36 4 -83 8 -105
10 -22 2 -76 7 -120 10 -44 3 -102 8 -130 10 -27 2 -90 6 -140 10 -49 3 -117
8 -150 10 -138 10 -348 21 -585 30 -187 8 -1008 23 -1013 19z"/>
</g>
</svg>
