<svg id="Layer_1" data-name="Layer 1" xmlns="http://www.w3.org/2000/svg" viewBox="0 0 560.58 116.83"><defs><style>.cls-1{fill:#d60018;}.cls-2{fill:#0030a8;}.cls-3{fill:#fff;}</style></defs><title>51748_WOVIN_JK_MV</title><polygon points="40.31 51.01 53.06 26.15 62.96 19.67 70.7 38.03 45.68 59.63 40.31 51.01"/><path class="cls-1" d="M38.5,50Q28.42,56.2,18.17,63.89l-.08.06q-4.65,3.49-9.33,7.3L.6,63.53q7.05-6.2,14-11.65l.08-.06Q25.15,43.6,35.42,37l0,0c.51,2,1,3.81,1.4,5.6.1.4.19.8.29,1.19l.06.26C37.7,46,38.12,48,38.5,50Z"/><path class="cls-1" d="M560.36,1.12v15Q554.54,19.2,548.71,22c-1.93.92-3.85,1.8-5.78,2.66S539,26.34,537,27.15q-9.12,3.78-18.27,6.77h0a257.81,257.81,0,0,1-27.63,7.33c-2.05.42-4.09.82-6.14,1.19q-11.64,2.13-23.42,3.28-7.8.77-15.69,1.14-12.78.62-25.78.33c-13.21-.27-26.6-1.18-40.21-2.55-9.22-.93-18.54-2.08-28-3.38q-11.76-1.62-23.75-3.54Q310.85,35,293,31.81l-17.39-3c-17.21-3-34.85-6.07-53-8.94-18.8-1.92-38.29-3.62-58.46-3.41h0c-5.09,0-10.23.22-15.41.54a250.74,250.74,0,0,0-25.56,2.86A228.14,228.14,0,0,0,100,24.9a222.74,222.74,0,0,0-21.91,7.26Q76,33,73.9,33.84C62.87,38.4,51.32,42.35,40,49.31c-.45.27-.91.55-1.36.84-.79-4.06-1.78-8.23-3-13,5.17-3.36,10.64-4.73,15.74-7.54A221.61,221.61,0,0,1,127.49,3.82c8.48-1.25,16.89-2,25.24-2.45A387.77,387.77,0,0,1,194,1.73c5.26.29,10.51.65,15.74,1,17.87,2,35.43,4.73,52.73,7.7,6,1,12,2.09,18,3.16,12.09,2.18,24.05,4.42,35.9,6.57,15.23,2.76,30.27,5.38,45.16,7.55,9.37,1.36,18.67,2.55,27.93,3.47,10.3,1,20.53,1.76,30.72,2.05,8.63.26,17.22.21,25.78-.21,5.24-.25,10.47-.64,15.69-1.2a248.56,248.56,0,0,0,25.69-4q9.8-2,19.56-4.69A248.81,248.81,0,0,0,537,12.53,251.66,251.66,0,0,0,559.91,1.37Z"/><path class="cls-2" d="M70.6,40.16c-1.93,3.56-4.34,7.85-7.46,13.39L59.3,60.38A261.52,261.52,0,0,0,24.4,80.91c-1,.72-2.08,1.45-3.12,2.2L12.66,75q3.56-2.76,7.07-5.34A259,259,0,0,1,70.6,40.16Z"/><path class="cls-2" d="M560.36,20.34v15q-11.64,6.18-23.32,11c-1,.43-2.06.85-3.1,1.26a259.26,259.26,0,0,1-26,8.79q-11.42,3.2-22.94,5.34t-23.42,3.39q-7.8.82-15.69,1.26-12.78.71-25.78.52a531.77,531.77,0,0,1-53.36-3.61c-18.76-2.12-38-5-57.78-8.32q-15.66-2.61-31.83-5.49L251.79,45q-8.79-1.55-17.74-3.08l-4.31-.51c-9.11-1.09-18.38-2.13-27.82-2.95-6.64-.57-13.36-1-20.16-1.33-8.46-.37-17-.46-25.77-.16-4.43.16-8.89.41-13.38.79a248.57,248.57,0,0,0-25.15,3.38c-2.67.51-5.34,1.06-8,1.67h-.06c-1.57.35-3.15.72-4.73,1.12l-.09,0-1.74.44c-1.17.3-2.35.61-3.52.94l-1.69.46-2,.59-2.6.77Q90.07,48,87.15,49A232.17,232.17,0,0,0,59.3,60.38l3.84-6.83c3.12-5.54,5.53-9.83,7.46-13.39h0q4.82-2.07,9.6-3.87a223,223,0,0,1,22.06-7c6.55-1.72,13-3.11,19.49-4.21a250.54,250.54,0,0,1,25.48-3q6.75-.45,13.43-.59c13-.27,25.75.26,38.44,1.19h0c7.36.55,14.7,1.22,22,1.95,8.91,1.19,17.74,2.51,26.5,3.9h0c9.77,1.56,19.45,3.22,29,4.91l19.84,3.55h0c11.89,2.13,23.65,4.25,35.31,6.2q8.46,1.42,16.83,2.72c9.3,1.42,18.54,2.71,27.71,3.77,14.71,1.72,29.28,2.89,43.73,3.22,8.63.2,17.22.11,25.78-.36,5.24-.28,10.47-.69,15.69-1.26Q473.31,50,485,47.64l3.89-.82c2.26-.47,4.51-1,6.77-1.51a254.51,254.51,0,0,0,27-8q7.23-2.56,14.44-5.64A259,259,0,0,0,560.36,20.34Z"/><path class="cls-2" d="M55.55,67,49.82,77.22c-3,5.35-7.48,8.84-14.2,8.84A14.44,14.44,0,0,1,27.2,83.5,271.26,271.26,0,0,1,55.55,67Z"/><path class="cls-2" d="M251.28,49.53c-1.44,7.67-5.91,11.56-14.53,13.4h0c-16.46-2.2-33.47-4.3-51-5.27-9.22-.51-18.6-.71-28.12-.45-7,.19-14,.63-21.11,1.37A241.39,241.39,0,0,0,96.8,66.07,245.23,245.23,0,0,0,33.08,94.28q-4.6-4.43-9.22-8.54C25,85,26.09,84.23,27.2,83.5a14.44,14.44,0,0,0,8.42,2.56c6.72,0,11.21-3.49,14.2-8.84L55.55,67A237.2,237.2,0,0,1,89.48,53.13l.4-.13,2.23-.7,3.51-1,1.43-.41.8-.22c.9-.26,1.8-.5,2.7-.74s2-.53,3-.78l2.28-.56.64-.15c.82-.2,1.63-.39,2.45-.57l2.54-.56.21,0c1.5-.32,3-.62,4.48-.91a244.13,244.13,0,0,1,25-3.49q7.33-.64,14.58-.89c8.63-.31,17.18-.24,25.66.12,17.3.7,34.32,2.54,51.19,4.55Q242,48,251.28,49.53Z"/><path class="cls-2" d="M560.48,39.5a259.86,259.86,0,0,1-48.4,20.55q-10.79,3.33-21.6,5.68c-1.83.41-3.66.81-5.49,1.17-7.78,1.59-15.59,2.8-23.42,3.68q-7.83.89-15.69,1.34-12.84.75-25.78.52A508,508,0,0,1,363.38,68c-16.71-2.15-33.62-4.9-50.8-7.86h0c-11.92-2-24-4.21-36.14-6.33a35.22,35.22,0,0,1-6.58,14.7c18.87,3.38,37.17,6.57,55,9.3q14.07,2.16,27.74,3.89h0c38.09,4.77,74.09,6.64,109,2.76,7.86-.88,15.66-2,23.42-3.54a271.51,271.51,0,0,0,38.72-10.41,296.64,296.64,0,0,0,36.77-16Z"/><path class="cls-3" d="M109.43,42.77h-.06c-1.57.36-3.15.73-4.73,1.12l-.09,0-1.74.44c-1.17.3-2.35.61-3.52.94l-1.69.46-2,.59-2.6.77Q90.07,48,87.15,49l2.33,4.15.4-.13,2.23-.7,3.51-1,1.43-.41.8-.22c.9-.26,1.8-.5,2.7-.74s2-.53,3-.78l2.28-.56.64-.15c.82-.2,1.63-.39,2.45-.57s1.7-.38,2.54-.56l.21,0C111,45.84,110.25,44.38,109.43,42.77Zm0,0h-.06c-1.57.36-3.15.73-4.73,1.12l-.09,0-1.74.44c-1.17.3-2.35.61-3.52.94l-1.69.46-2,.59-2.6.77Q90.07,48,87.15,49l2.33,4.15.4-.13,2.23-.7,3.51-1,1.43-.41.8-.22c.9-.26,1.8-.5,2.7-.74s2-.53,3-.78l2.28-.56.64-.15c.82-.2,1.63-.39,2.45-.57s1.7-.38,2.54-.56l.21,0C111,45.84,110.25,44.38,109.43,42.77Zm0,0h-.06c-1.57.36-3.15.73-4.73,1.12l-.09,0-1.74.44c-1.17.3-2.35.61-3.52.94l-1.69.46-2,.59-2.6.77Q90.07,48,87.15,49l2.33,4.15.4-.13,2.23-.7,3.51-1,1.43-.41.8-.22c.9-.26,1.8-.5,2.7-.74s2-.53,3-.78l2.28-.56.64-.15c.82-.2,1.63-.39,2.45-.57s1.7-.38,2.54-.56l.21,0C111,45.84,110.25,44.38,109.43,42.77ZM40.31,51,39.23,53.3c-.09-.48-.18-1-.28-1.45-.49-2.54-1.07-5.12-1.73-7.87l-.06-.26c-.1-.39-.19-.79-.29-1.19-.3-1.2-.62-2.43-.95-3.71-.16-.61-.32-1.23-.5-1.86-.54-2.06-1.14-4.23-1.8-6.57l-7.84-29H0L14.6,51.88l.53,1.83,3,10.24.53,1.83,1.11,3.83,1.44,5a17.33,17.33,0,0,0,3.23,6.31,13.41,13.41,0,0,0,2.8,2.59,14.44,14.44,0,0,0,8.42,2.56c6.72,0,11.21-3.49,14.2-8.84L55.55,67l3.75-6.66,3.84-6.83c3.12-5.54,5.53-9.83,7.46-13.39h0c1.28-2.37,2.36-4.42,3.3-6.31A239,239,0,0,0,40.31,51Zm69.12-8.24h-.06c-1.57.36-3.15.73-4.73,1.12l-.09,0-1.74.44c-1.17.3-2.35.61-3.52.94l-1.69.46-2,.59-2.6.77Q90.07,48,87.15,49l2.33,4.15.4-.13,2.23-.7,3.51-1,1.43-.41.8-.22c.9-.26,1.8-.5,2.7-.74s2-.53,3-.78l2.28-.56.64-.15c.82-.2,1.63-.39,2.45-.57s1.7-.38,2.54-.56l.21,0C111,45.84,110.25,44.38,109.43,42.77Zm0,0h-.06c-1.57.36-3.15.73-4.73,1.12l-.09,0-1.74.44c-1.17.3-2.35.61-3.52.94l-1.69.46-2,.59-2.6.77Q90.07,48,87.15,49l2.33,4.15.4-.13,2.23-.7,3.51-1,1.43-.41.8-.22c.9-.26,1.8-.5,2.7-.74s2-.53,3-.78l2.28-.56.64-.15c.82-.2,1.63-.39,2.45-.57l2.54-.56.21,0C111,45.84,110.25,44.38,109.43,42.77ZM91.78,9.34C87.43,1.12,83.07,0,76.84,0S66.5,1.12,62.14,9.34L51.31,29.58A223.81,223.81,0,0,1,93,11.66ZM100,24.9a222.74,222.74,0,0,0-21.91,7.26c.65,1.29,1.35,2.65,2.13,4.12a223,223,0,0,1,22.06-7ZM128.15,1.37l-.66,2.45-4.33,16L121.75,25l-1.45,5.37c-1.06,3.91-2,7.44-2.84,10.71-.47,1.8-.9,3.53-1.31,5.2a244.13,244.13,0,0,1,25-3.49l1.5-5.09L147.23,22,148.72,17l4.59-15.59ZM96.8,66.07l6.32,11.15c3.11,5.48,7.59,8.84,14.2,8.84s12.2-3.74,14.44-11.46l4.71-16A241.39,241.39,0,0,0,96.8,66.07Zm12.63-23.3h-.06c-1.57.35-3.15.72-4.73,1.12l-.09,0-1.74.44c-1.17.3-2.35.61-3.52.94l-1.69.46-2,.59-2.6.77Q90.07,48,87.15,49l2.33,4.15.4-.13,2.23-.7,3.51-1,1.43-.41.8-.22c.9-.26,1.8-.5,2.7-.74s2-.53,3-.78l2.28-.56.64-.15c.82-.2,1.63-.39,2.45-.57l2.54-.56.21,0C111,45.84,110.25,44.38,109.43,42.77Z"/><path class="cls-3" d="M251.79,45a30.81,30.81,0,0,1-.51,4.57h0Q264,51.6,276.43,53.79c.3-1.41.53-2.86.7-4.37Zm-6.3,19.14-8.74-1.17h0C231.59,64,225,64.39,216.58,64.39c-16.15,0-25.86-1.36-30.88-6.73-3-3.24-4.36-7.94-4.36-14.69,0-.32,0-.63,0-.93a35.12,35.12,0,0,1,.41-4.95c1.44-8.89,6.67-12.86,17.34-14.47h0a121.59,121.59,0,0,1,17.46-.95c16.32,0,26.07,1.33,31,6.8h0c9.77,1.56,19.45,3.22,29,4.91a42.55,42.55,0,0,0-1.09-4.61,33.33,33.33,0,0,0-13.15-18.29C252.27,3.35,237,0,216.58,0A132.91,132.91,0,0,0,194,1.73C180.43,4.09,170.5,8.9,164.14,16.42a32.43,32.43,0,0,0-3.48,5A39.2,39.2,0,0,0,156,36.93c-.17,1.61-.27,3.27-.3,5,0,.35,0,.7,0,1a49.58,49.58,0,0,0,1.9,14.24c5.9,19.81,25.57,28.85,59,28.85,26.18,0,44-5.58,53.27-17.57h0Z"/><path class="cls-2" d="M276.43,53.79a35.22,35.22,0,0,1-6.58,14.7h0L245.49,64.1l-8.74-1.17c8.62-1.84,13.09-5.73,14.53-13.4h0Q264,51.6,276.43,53.79Z"/><path class="cls-3" d="M324.84,77.79c3.56,4.71,8.48,8.27,15.67,8.27a18.34,18.34,0,0,0,12.07-4.38Q338.89,80,324.84,77.79ZM380.11,1.37,361.45,27.76l-9.54,13.5-3.25,4.59c9.3,1.42,18.54,2.71,27.71,3.77l3.52-5,9.49-13.41L410.5,1.37ZM309,54.91l3.61,5.21h0c17.18,3,34.09,5.71,50.8,7.86l3.36-4.75C348,61.11,328.76,58.2,309,54.91Zm19.2-17.19Q310.85,35,293,31.81l3.54,5.12h0c11.89,2.13,23.65,4.25,35.31,6.2ZM303.52,1.37H271.89l8.5,12.27c12.09,2.18,24.05,4.42,35.9,6.57Z"/><path class="cls-3" d="M420.1,1.37V84.69h25.78V1.37Z"/><path class="cls-3" d="M560.36,16.08Q554.54,19.2,548.71,22c-1.93.92-3.85,1.8-5.78,2.66S539,26.34,537,27.15v4.57a259,259,0,0,0,23.32-11.38l.22-.12V16Zm.12,38.37-.12.06-.12.06A266.76,266.76,0,0,1,530.48,68c-.76.3-1.53.59-2.29.87q-2.25.84-4.48,1.62l12.34,11.08c4,3.74,7.09,4.49,10.33,4.49,7.48,0,14.2-4.61,14.2-15.69v-16Zm-.12-19.16q-11.64,6.18-23.32,11v4l-3.1-2.78L522.6,37.36l-3.83-3.44h0L506.82,23.2,486,4.49C481.87.75,478.76,0,475.64,0c-7.34,0-14.07,4.49-14.07,15.57V84.69H485V35.74l6.14,5.51,4.52,4.06,12.28,11,4.15,3.72q1.51-.46,3-1c1-.32,2-.66,3-1,.8-.26,1.59-.53,2.39-.81l1.51-.53c1.73-.61,3.46-1.25,5.19-1.9,2-.76,4-1.55,6-2.38h0q3-1.23,6-2.55l3-1.34.07,0c2-.9,4-1.84,6-2.81,1.11-.54,2.23-1.08,3.34-1.64l2.53-1.29c1.07-.54,2.13-1.1,3.2-1.67l2.9-1.56.12-.07.1,0V35.17ZM537,1.37V12.53A251.66,251.66,0,0,0,559.91,1.37Z"/><path class="cls-3" d="M24.43,101.13,23,106.51c-.46,1.71-.81,3-1.06,4.25-.49-1-1-2.12-2.18-4.25l-2-3.9a2.66,2.66,0,0,0-2.77-1.73,2.62,2.62,0,0,0-2.73,1.73l-2.08,3.88c-1.06,2-1.66,3.18-2.17,4.27-.23-1.25-.55-2.52-1-4.25l-1.45-5.38H.67L4.6,114.71a2.7,2.7,0,0,0,2.67,2.12,2.88,2.88,0,0,0,2.64-1.64l2.47-4.38c1.34-2.38,2-3.51,2.45-4.62.53,1.11,1.15,2.26,2.49,4.64l2.47,4.36a2.89,2.89,0,0,0,2.63,1.64,2.71,2.71,0,0,0,2.68-2.12l4-13.58Z"/><path class="cls-3" d="M33.3,101.13v15.45h4.78V101.13Z"/><path class="cls-3" d="M53.72,101.13h-7.3l-3.05,4H53.72c2.59,0,4.57,1.59,4.57,3.76s-1.91,3.7-4.57,3.7H48.18V107H43.37v9.63H53.72c5.36,0,9.31-3.39,9.31-7.87S59.12,101.13,53.72,101.13Z"/><path class="cls-3" d="M78.57,100.88c-7.53,0-11.29,2.44-11.29,8s3.76,8,11.29,8,11.29-2.47,11.29-8S86.08,100.88,78.57,100.88Zm0,11.94c-4.8,0-6.53-.65-6.53-4s1.73-4,6.53-4,6.54.63,6.54,4S83.37,112.82,78.57,112.82Z"/><path class="cls-3" d="M116.28,101.13l-1.45,5.38c-.46,1.71-.81,3-1.06,4.25-.49-1-1-2.12-2.17-4.25l-2.06-3.9a2.65,2.65,0,0,0-2.77-1.73,2.6,2.6,0,0,0-2.72,1.73L102,106.49c-1.06,2-1.67,3.18-2.17,4.27-.23-1.25-.56-2.52-1-4.25l-1.46-5.38H92.52l3.93,13.58a2.71,2.71,0,0,0,2.68,2.12,2.87,2.87,0,0,0,2.63-1.64l2.47-4.38c1.34-2.38,2-3.51,2.45-4.62.53,1.11,1.15,2.26,2.49,4.64l2.47,4.36a2.89,2.89,0,0,0,2.64,1.64,2.7,2.7,0,0,0,2.67-2.12l4-13.58Z"/><path class="cls-3" d="M138.85,107.3h-8.4c-1.11,0-1.64-.3-1.64-1.09s.53-1.06,1.64-1.06h10.71l3.07-4H130.82c-4.69,0-6.63,1.89-6.63,4.8,0,2.66,1.82,4.44,5.79,4.44h8.41c1.13,0,1.64.32,1.64,1.11s-.51,1.13-1.64,1.13H126.7l-3.07,4H138c4.71,0,6.63-1.89,6.63-5.06C144.65,108.71,142.62,107.3,138.85,107.3Z"/><path class="cls-3" d="M171.05,100.88c-7.53,0-11.29,2.44-11.29,8s3.76,8,11.29,8,11.29-2.47,11.29-8S178.55,100.88,171.05,100.88Zm0,11.94c-4.81,0-6.54-.65-6.54-4s1.73-4,6.54-4,6.53.63,6.53,4S175.85,112.82,171.05,112.82Z"/><path class="cls-3" d="M191.88,105.15h9.42l3.1-4H187.08v15.45h4.8v-5.66h8.73l2.91-3.76H191.88Z"/><path class="cls-3" d="M238.35,101.13l-7.25,10.25-6.95-10.25h-5.87l9.68,14a3.57,3.57,0,0,0,3,1.73,3.77,3.77,0,0,0,3.1-1.73l9.88-14Z"/><path class="cls-3" d="M252.81,112.61v-2.1h9.49l2.75-3.51H252.81v-1.85h10l3.09-4H248v15.45h14.87l3.07-4Z"/><path class="cls-3" d="M271.54,101.13l-3.1,4h7.26v11.43h4.78V105.15H286l3.1-4Z"/><path class="cls-3" d="M297.66,112.61v-2.1h9.49L309.9,107H297.66v-1.85h10l3.09-4H292.86v15.45h14.87l3.07-4Z"/><path class="cls-3" d="M333.83,113.58a18.68,18.68,0,0,0-2.18-2,4.85,4.85,0,0,0,4.05-4.9c0-4.41-4.44-5.52-7.95-5.52h-9.93l-3.11,4h13.43c1.64,0,2.64.6,2.64,1.8s-1.16,1.73-2.64,1.73H314.71v7.9h4.77v-4.09h7.35l3.44,4.09h6.4Z"/><path class="cls-3" d="M350.11,112.61l-2.89,4h18l-9.65-14a3.59,3.59,0,0,0-3.05-1.73,3.71,3.71,0,0,0-3.1,1.73l-9.9,14h5.65l7.26-10.25,2.77,4.08c.51.74,1.15,1.69,1.57,2.24-.74,0-1.83,0-2.75,0Z"/><path class="cls-3" d="M383.14,101.13v9.08l-9.47-8.5a2.64,2.64,0,0,0-1.92-.83,2.54,2.54,0,0,0-2.61,2.88v12.82h4.34V107.5L383,116a2.55,2.55,0,0,0,1.92.83c1.38,0,2.63-.85,2.63-2.91V101.13Z"/><path class="cls-3" d="M407,107.3h-8.41c-1.11,0-1.64-.3-1.64-1.09s.53-1.06,1.64-1.06h10.72l3.07-4H398.91c-4.69,0-6.63,1.89-6.63,4.8,0,2.66,1.83,4.44,5.8,4.44h8.41c1.13,0,1.64.32,1.64,1.11s-.51,1.13-1.64,1.13H394.8l-3.07,4h14.39c4.71,0,6.62-1.89,6.62-5.06C412.74,108.71,410.71,107.3,407,107.3Z"/><path class="cls-3" d="M428.41,101.13v15.45h4.78V101.13Z"/><path class="cls-3" d="M452.4,101.13v9.08l-9.47-8.5a2.64,2.64,0,0,0-1.91-.83c-1.37,0-2.61.83-2.61,2.88v12.82h4.34V107.5l9.47,8.5a2.51,2.51,0,0,0,1.91.83c1.39,0,2.63-.85,2.63-2.91V101.13Z"/><path class="cls-3" d="M487,101.13v9.08l-9.46-8.5a2.66,2.66,0,0,0-1.92-.83,2.54,2.54,0,0,0-2.61,2.88v12.82h4.34V107.5l9.47,8.5a2.55,2.55,0,0,0,1.92.83c1.38,0,2.63-.85,2.63-2.91V101.13Z"/><path class="cls-3" d="M501.27,112.61v-2.1h9.49l2.75-3.51H501.27v-1.85h10l3.1-4h-17.9v15.45h14.87l3.07-4Z"/><path class="cls-3" d="M523.17,112.61v-2.1h9.49l2.75-3.51H523.17v-1.85h10l3.09-4h-17.9v15.45h14.88l3.07-4Z"/><path class="cls-3" d="M550.6,101.13h-7.29l-3,4H550.6c2.59,0,4.58,1.59,4.58,3.76s-1.92,3.7-4.58,3.7h-5.54V107h-4.8v9.63H550.6c5.36,0,9.31-3.39,9.31-7.87S556,101.13,550.6,101.13Z"/><polygon class="cls-3" points="217.86 26.22 221.72 38.11 234.22 38.11 224.11 45.46 227.97 57.36 217.86 50.01 207.74 57.36 211.6 45.46 201.49 38.11 213.99 38.11 217.86 26.22"/></svg>